Run_40001
nRows=4
nColumns=164

# SIMM Motion File Header:
name Run_40001
datacolumns 164
datarows 4
otherdata 1
range 2.86666700 2.89166700
endheader
time	pelvis_tilt	pelvis_list	pelvis_rotation	pelvis_tx	pelvis_ty	pelvis_tz	hip_flexion_r	hip_adduction_r	hip_rotation_r	knee_angle_r	ankle_angle_r	hip_flexion_l	hip_adduction_l	hip_rotation_l	knee_angle_l	ankle_angle_l	lumbar_extension	lumbar_bending	lumbar_rotation	arm_flex_r	arm_add_r	arm_rot_r	elbow_flex_r	pro_sup_r	arm_flex_l	arm_add_l	arm_rot_l	elbow_flex_l	pro_sup_l	subtalar_angle_r	mtp_angle_r	subtalar_angle_l	mtp_angle_l	wrist_flex_r	wrist_dev_r	wrist_flex_l	wrist_dev_l	LASI_tx	LASI_ty	LASI_tz	RASI_tx	RASI_ty	RASI_tz	LPSI_tx	LPSI_ty	LPSI_tz	RPSI_tx	RPSI_ty	RPSI_tz	RTH1_tx	RTH1_ty	RTH1_tz	RTH2_tx	RTH2_ty	RTH2_tz	RTH3_tx	RTH3_ty	RTH3_tz	LTH1_tx	LTH1_ty	LTH1_tz	LTH2_tx	LTH2_ty	LTH2_tz	LTH3_tx	LTH3_ty	LTH3_tz	RTB1_tx	RTB1_ty	RTB1_tz	RTB2_tx	RTB2_ty	RTB2_tz	RTB3_tx	RTB3_ty	RTB3_tz	LTB1_tx	LTB1_ty	LTB1_tz	LTB2_tx	LTB2_ty	LTB2_tz	LTB3_tx	LTB3_ty	LTB3_tz	RCAL_tx	RCAL_ty	RCAL_tz	RTOE_tx	RTOE_ty	RTOE_tz	RMT5_tx	RMT5_ty	RMT5_tz	LCAL_tx	LCAL_ty	LCAL_tz	LTOE_tx	LTOE_ty	LTOE_tz	LMT5_tx	LMT5_ty	LMT5_tz	LACR_tx	LACR_ty	LACR_tz	RACR_tx	RACR_ty	RACR_tz	CLAV_tx	CLAV_ty	CLAV_tz	C7_tx	C7_ty	C7_tz	RUA1_tx	RUA1_ty	RUA1_tz	RUA2_tx	RUA2_ty	RUA2_tz	RUA3_tx	RUA3_ty	RUA3_tz	RLEL_tx	RLEL_ty	RLEL_tz	RMEL_tx	RMEL_ty	RMEL_tz	LUA1_tx	LUA1_ty	LUA1_tz	LUA2_tx	LUA2_ty	LUA2_tz	LUA3_tx	LUA3_ty	LUA3_tz	LLEL_tx	LLEL_ty	LLEL_tz	LMEL_tx	LMEL_ty	LMEL_tz	RFAsuperior_tx	RFAsuperior_ty	RFAsuperior_tz	RFAradius_tx	RFAradius_ty	RFAradius_tz	RFAulna_tx	RFAulna_ty	RFAulna_tz	LFAsuperior_tx	LFAsuperior_ty	LFAsuperior_tz	LFAradius_tx	LFAradius_ty	LFAradius_tz	LFAulna_tx	LFAulna_ty	LFAulna_tz
      2.86666700	     -8.13090438	      1.15661962	     -1.61638878	      1.12183153	      0.98650513	     -0.33377622	     -5.57766737	      4.45092781	      6.29816852	    -26.62205898	     -4.37004662	     54.09024354	     -0.57064426	     -4.62410118	   -105.57572022	     -5.30934618	     -1.74371760	      0.55998161	     16.36558465	    -21.71156084	    -10.86293004	    -10.92872964	    103.13835246	     79.47040892	    -50.62397153	    -20.15357847	     -7.58215698	     94.26851151	     91.43416595	      0.00000000	      0.00000000	      0.00000000	      0.00000000	      0.00000000	      0.00000000	      0.00000000	      0.00000000	      1.13340979	      1.00099667	     -0.44692433	      1.12231067	      0.98748735	     -0.21022864	      0.96436076	      1.04728635	     -0.38926752	      0.96350545	      1.04508895	     -0.28959040	      1.02172819	      0.84026134	     -0.16661162	      1.04565152	      0.68565073	     -0.20241347	      0.95619474	      0.61438914	     -0.21573001	      1.12946981	      0.86363649	     -0.51927885	      1.25468399	      0.83902945	     -0.49707208	      1.27968335	      0.70781572	     -0.50724677	      0.90070815	      0.38374401	     -0.28820765	      0.82429660	      0.36493098	     -0.23114024	      0.77880620	      0.25106155	     -0.29652455	      1.29119196	      0.51591268	     -0.43694159	      1.17982253	      0.50106735	     -0.48097232	      1.11192376	      0.42613117	     -0.41604742	      0.59413886	      0.20599555	     -0.32162071	      0.75687240	      0.07893378	     -0.35384869	      0.72021622	      0.04830835	     -0.25056208	      0.93984685	      0.45423596	     -0.39905399	      1.04365419	      0.27518086	     -0.37144527	      1.00809214	      0.26526238	     -0.47220927	      1.07368241	      1.49511652	     -0.50348830	      1.14712967	      1.47266169	     -0.14823826	      1.18555022	      1.43581598	     -0.32303233	      1.06732795	      1.51665680	     -0.32656868	      1.13127107	      1.38442616	     -0.10167235	      1.13877232	      1.29556121	     -0.11867224	      1.05341432	      1.29434515	     -0.08250452	      1.03769892	      1.18017667	     -0.06004563	      1.00587447	      1.17466512	     -0.12524608	      1.00883657	      1.45545121	     -0.54363097	      0.94434581	      1.42718864	     -0.49693755	      0.94868172	      1.37165830	     -0.56359441	      0.82993241	      1.32665413	     -0.56931180	      0.82386995	      1.32183339	     -0.49553587	      1.13547248	      1.17240959	     -0.07847464	      1.28182911	      1.13003829	     -0.16834417	      1.26170722	      1.06514998	     -0.16022538	      0.88399577	      1.26459360	     -0.59098616	      0.99801925	      1.10216607	     -0.56060804	      0.93649203	      1.08033965	     -0.58041168
      2.87500000	     -8.31620169	      2.32587016	     -0.81572270	      1.12483167	      0.99334859	     -0.33431548	     -7.98601016	      2.90694584	      5.43689296	    -24.23206819	     -9.81639837	     54.73879334	      0.97406811	     -4.93459718	   -100.41857272	     -6.04955998	     -1.12078815	     -0.89423398	     16.24306160	    -21.96215899	    -10.86198335	    -10.60744455	    105.54217135	     79.85141664	    -52.45273268	    -20.39324478	     -8.64163827	     96.07520625	     90.71452122	      0.00000000	      0.00000000	      0.00000000	      0.00000000	      0.00000000	      0.00000000	      0.00000000	      0.00000000	      1.13523004	      1.00912526	     -0.44673608	      1.12593899	      0.99173162	     -0.21177506	      0.96661427	      1.05497265	     -0.38694499	      0.96724059	      1.05148009	     -0.28732059	      1.02180915	      0.84662780	     -0.16534406	      1.03822675	      0.69153687	     -0.20242008	      0.94554891	      0.62453171	     -0.21362311	      1.13445584	      0.87648304	     -0.51997720	      1.25698221	      0.85062737	     -0.49675138	      1.28279802	      0.71841561	     -0.50665037	      0.88325577	      0.39466367	     -0.28465052	      0.80624276	      0.37697189	     -0.22719311	      0.76190021	      0.26156497	     -0.29188946	      1.30621082	      0.52110657	     -0.43652988	      1.19689021	      0.49535716	     -0.48102521	      1.13663909	      0.41430871	     -0.41633823	      0.58005845	      0.22361519	     -0.31746226	      0.72944429	      0.08167282	     -0.35227605	      0.69087811	      0.05286536	     -0.24956932	      0.96304914	      0.42640155	     -0.39939108	      1.08257379	      0.25692175	     -0.37132298	      1.04748929	      0.24296776	     -0.47069371	      1.07160155	      1.50192074	     -0.50266413	      1.14979764	      1.48061471	     -0.14978616	      1.18568470	      1.44299580	     -0.32459025	      1.06770139	      1.52283549	     -0.32649231	      1.13470931	      1.39323802	     -0.10222123	      1.14218133	      1.30394366	     -0.11898971	      1.05736583	      1.30332734	     -0.08107887	      1.04299180	      1.18887741	     -0.05766147	      1.00979778	      1.18301243	     -0.12286618	      1.00604823	      1.46482463	     -0.54175596	      0.94255687	      1.43798491	     -0.49401145	      0.94440353	      1.38216150	     -0.56127139	      0.82475339	      1.33871799	     -0.56499413	      0.82031489	      1.33436983	     -0.49070596	      1.14051209	      1.18518900	     -0.07868068	      1.28605158	      1.14913269	     -0.17254666	      1.26945418	      1.08349127	     -0.16471047	      0.87794523	      1.27693596	     -0.58779934	      0.99461470	      1.11578732	     -0.56008224	      0.93301489	      1.09312967	     -0.57830351
      2.88333300	     -8.61846730	      3.22916883	      0.03407715	      1.12750678	      0.99978689	     -0.33497537	     -9.99290854	      1.76882682	      4.63060014	    -22.27285969	    -14.92087144	     55.26150474	      2.37585477	     -4.99790878	    -95.02974503	     -6.88770951	     -0.45916293	     -2.06781788	     16.01906874	    -22.24450708	    -10.89648974	    -10.30683410	    107.66239639	     80.26845913	    -54.16535048	    -20.47154937	     -9.64335446	     97.79344659	     90.01022814	      0.00000000	      0.00000000	      0.00000000	      0.00000000	      0.00000000	      0.00000000	      0.00000000	      0.00000000	      1.13651580	      1.01660255	     -0.44701244	      1.12942324	      0.99604600	     -0.21334817	      0.96871645	      1.06242783	     -0.38469041	      0.97076472	      1.05782000	     -0.28519474	      1.02233086	      0.85282144	     -0.16388303	      1.03160950	      0.69750233	     -0.20216014	      0.93616747	      0.63477420	     -0.21258519	      1.13833939	      0.88815676	     -0.51999306	      1.25868420	      0.86059033	     -0.49653869	      1.28418144	      0.72688070	     -0.50519424	      0.86811098	      0.40590366	     -0.28178212	      0.79068191	      0.38921863	     -0.22347697	      0.74681903	      0.27230336	     -0.28781108	      1.32011047	      0.52558306	     -0.43686056	      1.21391931	      0.48914429	     -0.48113354	      1.16189173	      0.40270848	     -0.41676348	      0.56872982	      0.24214780	     -0.31257303	      0.70320419	      0.08639079	     -0.35029135	      0.66363923	      0.05987260	     -0.24821597	      0.98835876	      0.39866938	     -0.39934582	      1.12229557	      0.23997290	     -0.37145891	      1.08809259	      0.22202733	     -0.46915578	      1.06994095	      1.50791275	     -0.50200265	      1.15222843	      1.48819397	     -0.15133207	      1.18594879	      1.44943135	     -0.32589819	      1.06815949	      1.52840640	     -0.32661357	      1.13796047	      1.40182911	     -0.10275620	      1.14538760	      1.31209974	     -0.11885554	      1.06090948	      1.31219347	     -0.07987341	      1.04770808	      1.19733017	     -0.05546227	      1.01320049	      1.19112917	     -0.12065933	      1.00375832	      1.47350486	     -0.53999327	      0.94145454	      1.44799002	     -0.49111050	      0.94056288	      1.39201224	     -0.55895694	      0.82009893	      1.35001587	     -0.56057573	      0.81742056	      1.34615135	     -0.48612737	      1.14465386	      1.19713375	     -0.07919832	      1.28926060	      1.16642103	     -0.17624763	      1.27583752	      1.10027191	     -0.16861578	      0.87235883	      1.28846534	     -0.58455712	      0.99181008	      1.12878025	     -0.55925093	      0.93025322	      1.10516105	     -0.57585536
      2.89166700	     -9.09724360	      3.76502868	      0.84393134	      1.12966875	      1.00558785	     -0.33554164	    -11.42961272	      1.15410158	      4.15898793	    -20.96693286	    -19.56209423	     55.74503292	      3.46754096	     -4.82469477	    -89.47442725	     -7.63677887	      0.31215311	     -2.85412604	     15.78215812	    -22.52601413	    -10.94944223	    -10.05618879	    109.43079407	     80.74512080	    -55.72413059	    -20.38352249	    -10.55727870	     99.39727577	     89.32554904	      0.00000000	      0.00000000	      0.00000000	      0.00000000	      0.00000000	      0.00000000	      0.00000000	      0.00000000	      1.13731309	      1.02312991	     -0.44753617	      1.13248162	      1.00037153	     -0.21470529	      0.97069435	      1.06951943	     -0.38260586	      0.97389825	      1.06409561	     -0.28325737	      1.02300824	      0.85875800	     -0.16251465	      1.02572925	      0.70348881	     -0.20170971	      0.92820037	      0.64474749	     -0.21270009	      1.14060625	      0.89802402	     -0.51909103	      1.25983660	      0.86859413	     -0.49627527	      1.28378690	      0.73313923	     -0.50269179	      0.85549076	      0.41676891	     -0.28004819	      0.77806489	      0.40104189	     -0.22027577	      0.73328759	      0.28311773	     -0.28470006	      1.33286851	      0.52920930	     -0.43812646	      1.23062477	      0.48260902	     -0.48134961	      1.18739338	      0.39151558	     -0.41722953	      0.55968500	      0.26147226	     -0.30686241	      0.67776954	      0.09342104	     -0.34839254	      0.63833729	      0.06931959	     -0.24696165	      1.01544847	      0.37125520	     -0.39864641	      1.16287746	      0.22491854	     -0.37138266	      1.12960404	      0.20294984	     -0.46777572	      1.06860965	      1.51303507	     -0.50150268	      1.15435842	      1.49521123	     -0.15289957	      1.18632033	      1.45500644	     -0.32699023	      1.06861235	      1.53331806	     -0.32689671	      1.14095394	      1.41004668	     -0.10329283	      1.14843819	      1.31989551	     -0.11825673	      1.06405323	      1.32061714	     -0.07910519	      1.05186900	      1.20526004	     -0.05352984	      1.01607856	      1.19866544	     -0.11877290	      1.00196098	      1.48138496	     -0.53836314	      0.94094889	      1.45683962	     -0.48831839	      0.93713997	      1.40104156	     -0.55668184	      0.81597959	      1.36040009	     -0.55605504	      0.81505212	      1.35702995	     -0.48173184	      1.14799432	      1.20779572	     -0.07994125	      1.29168441	      1.18156553	     -0.17946489	      1.28102373	      1.11507149	     -0.17192415	      0.86735771	      1.29907530	     -0.58125259	      0.98957281	      1.14097569	     -0.55815189	      0.92812922	      1.11626210	     -0.57312305
